{"title":"BBC Proms 2012 - 61. Howells and Elgar","uid":7605242,"size":1297547023,"categoryP":"video","categoryS":"music_videos","magnet":"?xt=urn:btih:3ce51253c0884bb208cc7c24d952c1ec63632fea&amp;dn=BBC+Proms+2012+-+61.+Howells+and+Elgar&amp;tr=udp%3A%2F%2Ftracker.openbittorrent.com%3A80&amp;tr=udp%3A%2F%2Fopen.demonii.com%3A1337&amp;tr=udp%3A%2F%2Ftracker.coppersurfer.tk%3A6969&amp;tr=udp%3A%2F%2Fexodus.desync.com%3A6969","seeders":0,"leechers":1,"uploader":"deandominic","files":2,"time":1346891106,"description":"BBC Proms 2012 - 61. Howells and Elgar\n\nHowells - Hymnus Paradisi (44 mins)\nElgar - Symphony No. 1 in A flat major (53 mins)\n\nMiah Persson soprano\nAndrew Kennedy tenor\nBBC Symphony Chorus\nLondon Philharmonic Choir\nBBC Symphony Orchestra\nMartyn Brabbins conductor\n\nFollowing his triumphant conducting of Havergal Brian's `The Gothic' Symphony last year, Martyn Brabbins brings another British magnum opus to the Proms. Herbert Howells wrote Hymnus Paradisi `for the drawer' in the wake of the tragically early death of his son. Only years later was he persuaded to release a finished score to the public.\n\nAfter this light-filled memorial from a composer closely identified with Gloucester Cathedral, we revisit the masterpiece that, in 1908 - the year of the first London Olympics - announced a Worcester man's arrival as perhaps the greatest of British symphonists.\n\nVideo\nID                                       : 1\nFormat                                   : AVC\nFormat/Info                              : Advanced Video Codec\nFormat profile                           : &lt;a class=&quot;__cf_email__&quot; href=&quot;/cdn-cgi/l/email-protection&quot; data-cfemail=&quot;0c416d65624c403f223c&quot;&gt;[email&amp;#160;protected]&lt;/a&gt;&lt;script data-cfhash='f9e31' type=&quot;text/javascript&quot;&gt;\n/* &lt;![CDATA[ */!function(){try{var t=&quot;currentScript&quot;in document?document.currentScript:function(){for(var t=document.getElementsByTagName(&quot;script&quot;),e=t.length;e--;)if(t[e].getAttribute(&quot;data-cfhash&quot;))return t[e]}();if(t&amp;&amp;t.previousSibling){var e,r,n,i,c=t.previousSibling,a=c.getAttribute(&quot;data-cfemail&quot;);if(a){for(e=&quot;&quot;,r=parseInt(a.substr(0,2),16),n=2;a.length-n;n+=2)i=parseInt(a.substr(n,2),16)^r,e+=String.fromCharCode(i);e=document.createTextNode(e),c.parentNode.replaceChild(e,c)}t.parentNode.removeChild(t);}}catch(u){}}()/* ]]&gt; */&lt;/script&gt;\nFormat settings, CABAC                   : Yes\nFormat settings, ReFrames                : 4 frames\nCodec ID                                 : avc1\nCodec ID/Info                            : Advanced Video Coding\nDuration                                 : 1h 55mn\nBit rate mode                            : Constant\nBit rate                                 : 1 404 Kbps\nWidth                                    : 832 pixels\nHeight                                   : 468 pixels\nDisplay aspect ratio                     : 16:9\nFrame rate mode                          : Constant\nFrame rate                               : 25.000 fps\nStandard                                 : PAL\nColor space                              : YUV\nChroma subsampling                       : 4:2:0\nBit depth                                : 8 bits\nScan type                                : Progressive\nBits/(Pixel*Frame)                       : 0.144\nStream size                              : 1.13 GiB (93%)\n\nAudio\nID                                       : 2\nFormat                                   : AAC\nFormat/Info                              : Advanced Audio Codec\nFormat profile                           : HE-AAC / LC\nCodec ID                                 : 40\nDuration                                 : 1h 55mn\nBit rate mode                            : Constant\nBit rate                                 : 96.0 Kbps\nChannel(s)                               : 2 channels\nChannel positions                        : Front: L R\nSampling rate                            : 48.0 KHz / 24.0 KHz\nCompression mode                         : Lossy\nStream size                              : 78.0 MiB (6%)\n","torrent":{"xt":"urn:btih:3ce51253c0884bb208cc7c24d952c1ec63632fea","amp;dn":"BBC+Proms+2012+-+61.+Howells+and+Elgar","amp;tr":["udp%3A%2F%2Ftracker.openbittorrent.com%3A80","udp%3A%2F%2Fopen.demonii.com%3A1337","udp%3A%2F%2Ftracker.coppersurfer.tk%3A6969","udp%3A%2F%2Fexodus.desync.com%3A6969"],"infoHash":"3ce51253c0884bb208cc7c24d952c1ec63632fea","infoHashBuffer":{"type":"Buffer","data":[60,229,18,83,192,136,75,178,8,204,124,36,217,82,193,236,99,99,47,234]},"announce":[],"urlList":[]}}